<?xml version="1.0" encoding="UTF-8"?>
<svg version="1.1" xmlns="http://www.w3.org/2000/svg" width="3000" height="634">
<path d="M0 0 C24.55788343 -0.04687163 49.11576008 -0.08206278 73.67367935 -0.10362434 C85.07820386 -0.11390508 96.48270045 -0.12790365 107.88720703 -0.15087891 C117.83578345 -0.1709114 127.78433964 -0.18373967 137.73293567 -0.18817699 C142.99297515 -0.19076779 148.25295679 -0.1967893 153.5129776 -0.21146011 C158.48039648 -0.22520043 163.44773459 -0.22919002 168.41517067 -0.22621536 C170.22251387 -0.22675827 172.02986025 -0.2306365 173.83718681 -0.23841095 C208.93634944 -0.38177932 244.33416822 4.37454034 271.125 28.94921875 C284.52277093 42.68716746 289.27540921 62.22958887 289.24658203 80.90136719 C288.63385408 120.66992953 271.10917529 158.29585605 243 186 C239.45188267 189.16978782 235.76292305 192.09155205 232 195 C230.66340332 196.05682983 230.66340332 196.05682983 229.29980469 197.13500977 C222.116188 202.70087996 214.80063644 207.13340536 206.6875 211.25 C206.1023764 211.55093567 205.51725281 211.85187134 204.91439819 212.16192627 C196.1667474 216.65462873 187.5364471 220.54001197 178 223 C178.61746094 223.20753906 179.23492188 223.41507813 179.87109375 223.62890625 C191.13911687 227.72792836 199.81928481 234.91684035 205.625 245.4375 C212.57109116 260.67756357 213.61603465 277.8830482 215.56542969 294.30418396 C215.98380001 297.81074841 216.4134481 301.31593215 216.84179688 304.82128906 C217.55005934 310.62913724 218.25135268 316.43778855 218.94775391 322.24707031 C219.89309166 330.13099195 220.85489725 338.01283568 221.82105064 345.89422989 C222.55010992 351.84581828 223.27483294 357.79793639 224 363.75 C224.23041489 365.63727814 224.23041489 365.63727814 224.46548462 367.56268311 C224.89625571 371.09877164 225.32369168 374.63524602 225.75 378.171875 C225.94156929 379.7392189 225.94156929 379.7392189 226.13700867 381.33822632 C226.308955 382.77327011 226.308955 382.77327011 226.484375 384.23730469 C226.63471191 385.47997101 226.63471191 385.47997101 226.78808594 386.7477417 C227 389 227 389 227 393 C196.64 393 166.28 393 135 393 C131.55887501 368.91212505 131.55887501 368.91212505 130.52954102 359.50927734 C130.40873169 358.4314801 130.28792236 357.35368286 130.16345215 356.2432251 C129.90691235 353.95360203 129.65161566 351.66383936 129.39752388 349.37394333 C128.85314525 344.48083227 128.29775826 339.58898715 127.74324703 334.69701576 C126.71701165 325.64160175 125.69555563 316.58569692 124.69116211 307.52783203 C123.98617944 301.17396737 123.26793693 294.82172104 122.54105949 288.47032547 C122.26868055 286.06847428 122.00116243 283.66606632 121.73877144 281.26310349 C121.37166851 277.90610865 120.98763318 274.55143791 120.59985352 271.19677734 C120.49738815 270.22203461 120.39492279 269.24729187 120.28935242 268.24301147 C119.30336407 259.97353609 117.45183736 249.77269658 111 244 C98.08396913 236.28657351 85.21948689 235.84456889 70.55859375 235.90234375 C69.1814021 235.90421272 67.80420977 235.90563436 66.42701721 235.90663147 C62.83171702 235.91041897 59.23645831 235.92021632 55.64117432 235.93133545 C51.96065837 235.94163131 48.28013562 235.94614647 44.59960938 235.95117188 C37.39972083 235.96184261 30.19986627 235.97887282 23 236 C22.82033188 236.67744263 22.64066376 237.35488525 22.45555115 238.05285645 C14.35201558 268.60508147 6.24097936 299.15523579 -1.9375 329.6875 C-2.22344025 330.75548828 -2.50938049 331.82347656 -2.8039856 332.92382812 C-8.16907503 352.95835407 -13.5886079 372.97784924 -19 393 C-47.38 393 -75.76 393 -105 393 C-104.3846514 388.69255978 -103.82244115 384.92782827 -102.72265625 380.80615234 C-102.46203903 379.82169128 -102.20142181 378.83723022 -101.9329071 377.82293701 C-101.50205559 376.22062225 -101.50205559 376.22062225 -101.0625 374.5859375 C-100.75516434 373.43039368 -100.44782867 372.27484985 -100.13117981 371.08428955 C-99.27365508 367.86412017 -98.41240268 364.64499132 -97.54944229 361.42627716 C-96.80398229 358.64319129 -96.06156359 355.85929768 -95.31911564 353.07540703 C-92.55570234 342.71435644 -89.77902409 332.35687266 -87 322 C-86.76523201 321.12499847 -86.53046402 320.24999695 -86.28858185 319.34848022 C-80.03999492 296.06077465 -73.77813795 272.77664075 -67.51309204 249.49335861 C-62.26442385 229.98705166 -57.02249279 210.4789437 -51.78749466 190.96896362 C-51.12571101 188.50264979 -50.4638439 186.03635836 -49.80197144 183.57006836 C-44.50534913 163.83230241 -39.22056529 144.09139524 -33.94719315 124.34740448 C-33.04548161 120.97134558 -32.14364874 117.59531911 -31.24179077 114.21929932 C-27.7116588 101.00447325 -27.7116588 101.00447325 -24.18463135 87.78881836 C-18.51677775 66.54091518 -12.83307503 45.29747087 -7.06256485 24.07717514 C-6.52980447 22.11761064 -5.99769816 20.15786819 -5.46627426 18.19794083 C-4.73638344 15.50749679 -4.00366981 12.81783892 -3.27001953 10.12841797 C-3.05361439 9.32924831 -2.83720924 8.53007866 -2.61424637 7.70669174 C-1.11472009 2.22944018 -1.11472009 2.22944018 0 0 Z M67 67 C65.37624348 71.79619183 63.77333789 76.5804506 62.44116211 81.4675293 C62.03945045 82.93424324 62.03945045 82.93424324 61.62962341 84.43058777 C61.34837112 85.46798599 61.06711884 86.50538422 60.77734375 87.57421875 C60.47236465 88.6921431 60.16738556 89.81006744 59.85316467 90.96186829 C59.20565973 93.33760961 58.55940005 95.71369063 57.91430664 98.09008789 C56.96745328 101.57718718 56.01632875 105.06309691 55.06445312 108.54882812 C49.58289156 128.66584741 44.28410989 148.83038815 39 169 C48.97217209 169.02337066 58.94433746 169.04103919 68.91653156 169.05181217 C73.54910068 169.0569877 78.1816508 169.06398601 82.81420898 169.07543945 C87.30112578 169.08646092 91.78802453 169.09231673 96.27495384 169.09487724 C97.97018912 169.09669736 99.66542362 169.10024952 101.36065102 169.10573006 C124.44353043 169.35020501 124.44353043 169.35020501 147.25 166.3125 C148.07298584 166.13879883 148.89597168 165.96509766 149.74389648 165.78613281 C162.28435093 162.97963918 173.06790908 158.35086252 183 150 C183.64324219 149.48050781 184.28648437 148.96101563 184.94921875 148.42578125 C196.38091162 138.22716986 203.14234956 120.07307923 204.203125 105.140625 C204.35202678 95.95834843 203.44408691 88.57447102 197.5625 81.25 C186.83639199 70.19175385 170.57364913 67.49912947 155.72976494 66.90987968 C153.36083742 66.87838738 150.99386793 66.876069 148.62475586 66.88647461 C147.7358667 66.88632858 146.84697754 66.88618256 145.93115234 66.8860321 C143.02569034 66.88672256 140.1202944 66.89447392 137.21484375 66.90234375 C135.18746475 66.90421101 133.1600853 66.90563346 131.13270569 66.90663147 C125.8210829 66.91043236 120.50948787 66.92024169 115.19787598 66.93133545 C109.76798884 66.941602 104.33809719 66.94614029 98.90820312 66.95117188 C88.27212329 66.96186632 77.63606396 66.9789133 67 67 Z " fill="#062553" transform="translate(513,122)"/>
<path d="M0 0 C17.01196371 15.36843501 25.50715215 36.70762255 28.3046875 59.08203125 C30.74580172 107.83360745 18.50131274 158.26305658 -10.6953125 198.08203125 C-11.41203125 199.08105469 -12.12875 200.08007812 -12.8671875 201.109375 C-17.19093225 207.02097773 -21.76240072 212.56277127 -26.75 217.92578125 C-28.72680406 220.03560945 -28.72680406 220.03560945 -30.328125 222.36328125 C-30.77929688 222.93046875 -31.23046875 223.49765625 -31.6953125 224.08203125 C-32.3553125 224.08203125 -33.0153125 224.08203125 -33.6953125 224.08203125 C-33.92476562 224.65566406 -34.15421875 225.22929687 -34.390625 225.8203125 C-37.16573007 230.63104853 -42.37287306 233.71832838 -46.6953125 237.08203125 C-47.64148437 237.83097656 -48.58765625 238.57992188 -49.5625 239.3515625 C-80.16646491 263.03023996 -119.11886316 275.0829354 -157.8203125 270.39453125 C-179.26360033 266.84546856 -197.64246153 257.99516837 -210.72265625 240.171875 C-212.26246834 237.76001092 -213.55887559 235.44426108 -214.81860352 232.88891602 C-215.17205338 232.17429703 -215.52550323 231.45967804 -215.8896637 230.72340393 C-216.1555278 230.18175095 -216.42139191 229.64009796 -216.6953125 229.08203125 C-217.20408936 230.98251221 -217.20408936 230.98251221 -217.72314453 232.92138672 C-221.74818838 247.95559129 -225.77538105 262.98921984 -229.8037014 278.02254677 C-230.89004649 282.07669625 -231.9763274 286.1308629 -233.0625 290.18505859 C-235.74569387 300.2001216 -238.42952253 310.21501404 -241.11460686 320.22957039 C-242.33334568 324.77514982 -243.55181463 329.32080115 -244.76959229 333.86663818 C-245.93339288 338.21092349 -247.09800152 342.55499145 -248.26316833 346.89891052 C-248.69211151 348.4985966 -249.12078538 350.09835492 -249.54914856 351.69819641 C-249.75001572 352.44832504 -249.95088287 353.19845367 -250.15783691 353.97131348 C-250.3309565 354.61816353 -250.50407608 355.26501358 -250.68244171 355.93146515 C-253.29977827 365.66515086 -255.99719195 375.36879726 -258.6953125 385.08203125 C-286.7453125 385.08203125 -314.7953125 385.08203125 -343.6953125 385.08203125 C-339.19377614 367.07588581 -339.19377614 367.07588581 -337.49145508 360.64624023 C-337.30323401 359.93420283 -337.11501295 359.22216543 -336.92108822 358.48855114 C-336.31177395 356.18478278 -335.70086761 353.88144046 -335.08984375 351.578125 C-334.64888278 349.91288909 -334.20798694 348.24763593 -333.76715088 346.58236694 C-332.59248328 342.14669223 -331.41615476 337.71145974 -330.23927689 333.276371 C-329.50173207 330.4966145 -328.76460127 327.71674849 -328.02755737 324.93685913 C-319.96834929 294.54415466 -311.81293929 264.1784956 -303.59883118 233.8273468 C-300.27583216 221.54307364 -296.98329917 209.25071379 -293.6953125 196.95703125 C-289.1443065 179.94351099 -284.58214843 162.93304283 -280.0078125 145.92578125 C-279.75495483 144.98561598 -279.50209717 144.04545071 -279.24157715 143.07679558 C-276.85995417 134.22160863 -274.47811098 125.36648094 -272.09570312 116.51150513 C-266.04694986 94.02847172 -260.01135053 71.54202821 -254.0078125 49.046875 C-253.46721914 47.02190752 -252.92661056 44.9969441 -252.38598633 42.97198486 C-250.06299507 34.27014685 -247.74105525 25.56803524 -245.42424011 16.86455059 C-244.48571465 13.34043042 -243.54548523 9.81676646 -242.60482788 6.2932148 C-242.16899603 4.65903064 -241.73394355 3.02463841 -241.29971313 1.390028 C-240.70958 -0.8312481 -240.11683501 -3.05181092 -239.5234375 -5.2722168 C-239.0269873 -7.13646553 -239.0269873 -7.13646553 -238.52050781 -9.03837585 C-237.6953125 -11.91796875 -237.6953125 -11.91796875 -236.6953125 -13.91796875 C-209.6353125 -13.91796875 -182.5753125 -13.91796875 -154.6953125 -13.91796875 C-155.98827427 -8.09964077 -157.32875698 -2.48925388 -159.078125 3.1796875 C-159.29725555 3.89942245 -159.51638611 4.61915741 -159.74215698 5.36070251 C-160.43170816 7.62296046 -161.12591613 9.88375643 -161.8203125 12.14453125 C-162.29327988 13.69326439 -162.76593875 15.24209179 -163.23828125 16.79101562 C-164.38706915 20.55578413 -165.54003095 24.3192506 -166.6953125 28.08203125 C-165.57438056 26.81090046 -164.45486192 25.53852328 -163.3359375 24.265625 C-162.71235352 23.55720459 -162.08876953 22.84878418 -161.44628906 22.11889648 C-160.05913759 20.50525946 -158.73924718 18.83383486 -157.4453125 17.14453125 C-140.30645718 -3.37772269 -107.5848563 -17.84071769 -81.42431641 -20.70703125 C-51.35601411 -23.03115123 -23.88130974 -19.95195686 0 0 Z M-161.703125 68.75 C-170.15375906 78.64221282 -176.29471328 89.29804384 -181.6953125 101.08203125 C-182.15550781 102.05269531 -182.61570312 103.02335937 -183.08984375 104.0234375 C-188.92073608 117.03650831 -193.17073099 131.89763366 -194.6953125 146.08203125 C-194.82808594 147.24605469 -194.96085937 148.41007812 -195.09765625 149.609375 C-196.54642192 165.38301473 -194.98607016 180.8718213 -184.6328125 193.45703125 C-177.63613048 200.69818968 -168.61416192 204.75840101 -158.6953125 206.08203125 C-157.8290625 206.21480469 -156.9628125 206.34757813 -156.0703125 206.484375 C-136.02829489 208.90793419 -116.68177008 203.19313094 -100.6953125 191.08203125 C-74.02516008 169.99155545 -62.49326848 136.52317744 -58.08203125 103.828125 C-56.37440085 87.28653351 -58.04602012 70.67945336 -68.25390625 56.9921875 C-75.54475491 49.00197685 -85.58654301 44.78519891 -96.22070312 43.86303711 C-121.83360877 42.71256995 -143.61227224 49.720825 -161.703125 68.75 Z " fill="#062553" transform="translate(2262.6953125,248.91796875)"/>
<path d="M0 0 C7.00664437 6.65174922 13.48411015 14.60010583 15.25 24.3125 C15.91 24.3125 16.57 24.3125 17.25 24.3125 C17.58 22.0025 17.91 19.6925 18.25 17.3125 C20.89 7.4125 23.53 -2.4875 26.25 -12.6875 C53.97 -12.6875 81.69 -12.6875 110.25 -12.6875 C107.92394833 -2.80178039 105.60767453 7.03137814 102.95318604 16.82591248 C102.75789558 17.54785734 102.56260513 18.26980221 102.36139679 19.01362419 C102.05875538 20.13223178 102.05875538 20.13223178 101.75 21.2734375 C101.31727217 22.8810812 100.88480519 24.48879513 100.45257568 26.09657288 C99.53328497 29.51431269 98.61244398 32.93162917 97.69030762 36.34860229 C95.46373423 44.59965218 93.24545814 52.85293519 91.02611542 61.10593224 C90.26277201 63.94420175 89.49911034 66.7823855 88.7354126 69.62055969 C84.20858758 86.44742095 79.71568608 103.28323127 75.23239136 120.12173462 C68.59275697 145.05875536 61.93671409 169.99134068 55.2469635 194.91496658 C54.70647384 196.92928745 54.16644667 198.94373167 53.62658691 200.95822144 C47.60027174 223.43775104 41.42129251 245.87143633 35.25 268.3125 C7.86 268.3125 -19.53 268.3125 -47.75 268.3125 C-45.5 255.9375 -45.5 255.9375 -44.0234375 250.33203125 C-43.7140625 249.14931641 -43.4046875 247.96660156 -43.0859375 246.74804688 C-42.61027344 244.95463867 -42.61027344 244.95463867 -42.125 243.125 C-41.80015625 241.88685547 -41.4753125 240.64871094 -41.140625 239.37304688 C-40.3474221 236.35187701 -39.55048292 233.33174752 -38.75 230.3125 C-39.32717773 230.90345459 -39.90435547 231.49440918 -40.49902344 232.10327148 C-64.76604346 256.70412619 -97.71842093 272.33645558 -132.57885742 272.64208984 C-134.2413855 272.63363037 -134.2413855 272.63363037 -135.9375 272.625 C-137.11223877 272.61936035 -138.28697754 272.6137207 -139.49731445 272.60791016 C-165.60908071 272.24671199 -188.76938362 264.7674958 -207.36669922 245.78955078 C-226.47461685 225.38663838 -230.76566582 196.04829619 -229.90234375 169.29394531 C-227.4620677 121.53649162 -207.13889863 75.01466933 -176.66015625 38.6171875 C-174.73779224 36.35775744 -174.73779224 36.35775744 -173.12109375 34.0078125 C-172.66863281 33.44835937 -172.21617187 32.88890625 -171.75 32.3125 C-171.09 32.3125 -170.43 32.3125 -169.75 32.3125 C-169.54890625 31.77882813 -169.3478125 31.24515625 -169.140625 30.6953125 C-167.15327207 27.29001675 -164.37903724 24.82800953 -161.5 22.1875 C-160.87520752 21.61346436 -160.25041504 21.03942871 -159.60668945 20.44799805 C-119.02551403 -16.17329346 -46.41899402 -39.84243778 0 0 Z M-103.75 65.3125 C-104.57886719 66.06144531 -105.40773438 66.81039062 -106.26171875 67.58203125 C-126.80945276 87.05989856 -138.26586167 115.7776671 -142.75 143.3125 C-142.93046875 144.37082031 -143.1109375 145.42914063 -143.296875 146.51953125 C-145.37329397 163.90059008 -144.58045603 180.27096904 -133.9453125 194.7734375 C-126.22064641 203.70765985 -115.06053986 206.94555775 -103.75 208.3125 C-80.86835175 209.397297 -60.97559115 203.53613897 -43.6875 188.25 C-37.30294147 182.3516691 -32.42804446 175.59999722 -27.75 168.3125 C-26.70199219 166.71341797 -26.70199219 166.71341797 -25.6328125 165.08203125 C-16.76234534 150.6373211 -11.48604927 133.77078019 -7.75 117.3125 C-7.52570313 116.40886719 -7.30140625 115.50523437 -7.0703125 114.57421875 C-5.58071121 107.52411947 -5.51405882 100.42848329 -5.4375 93.25 C-5.41977539 92.24461182 -5.40205078 91.23922363 -5.38378906 90.20336914 C-5.39597595 77.77172814 -8.88784067 65.42083042 -17.75 56.3125 C-43.12412703 35.99192028 -81.38754769 44.70247155 -103.75 65.3125 Z " fill="#062553" transform="translate(1012.75,247.6875)"/>
<path d="M0 0 C1.04929687 0.29003906 2.09859375 0.58007812 3.1796875 0.87890625 C21.91421361 6.57553696 35.77066137 17.89298789 45 35 C45.70202515 36.65208442 46.38427123 38.31385045 47 40 C49.99009666 31.4149372 52.26813774 22.6807468 54.5703125 13.890625 C54.869375 12.76140625 55.1684375 11.6321875 55.4765625 10.46875 C55.74549316 9.44201172 56.01442383 8.41527344 56.29150391 7.35742188 C57 5 57 5 58 4 C60.58639038 3.90492179 63.1459856 3.87443624 65.73266602 3.88647461 C66.94720459 3.88625557 66.94720459 3.88625557 68.1862793 3.8860321 C70.87551508 3.88673146 73.56468249 3.8945249 76.25390625 3.90234375 C78.11335716 3.90420785 79.97280856 3.90563179 81.83226013 3.90663147 C86.73629096 3.91045729 91.64029236 3.92028812 96.54431152 3.93133545 C101.54451092 3.94154819 106.54471506 3.94612879 111.54492188 3.95117188 C121.36329421 3.96191033 131.18164466 3.97898752 141 4 C138.38655749 15.38451965 135.55040362 26.6862004 132.5 37.9609375 C132.06713496 39.56908477 131.63453066 41.17730224 131.2021637 42.7855835 C130.28273426 46.20382647 129.36175566 49.62164643 128.43948364 53.03912354 C126.21670732 61.27612894 124.00229494 69.51538532 121.78677559 77.75434494 C121.02441174 80.58902703 120.26173004 83.42362345 119.49900818 86.25820923 C114.70127477 104.09211692 109.93973031 121.93559535 105.18672562 139.78146744 C103.33360723 146.73863671 101.47919601 153.69546162 99.625 160.65234375 C99.32847377 161.76496362 99.32847377 161.76496362 99.02595711 162.90006065 C92.70777589 186.60641623 86.36933486 210.30733256 80 234 C79.6921759 235.14515076 79.38435181 236.29030151 79.06719971 237.47015381 C77.21395286 244.36244043 75.35757298 251.25387217 73.49703979 258.14419556 C72.92093567 260.2785933 72.34550389 262.41317264 71.77078247 264.54794312 C70.98731349 267.45701463 70.20110279 270.36533048 69.4140625 273.2734375 C69.18255997 274.13498947 68.95105743 274.99654144 68.71253967 275.88420105 C67.11444308 281.77111383 67.11444308 281.77111383 66 284 C38.61 284 11.22 284 -17 284 C-14.63184113 273.9353248 -12.26523476 263.95643405 -9.49414062 254.01171875 C-8.95377416 252.01880756 -8.47042197 250.0105706 -8 248 C-8.33 247.67 -8.66 247.34 -9 247 C-9.33 247.66 -9.66 248.32 -10 249 C-10.66 249 -11.32 249 -12 249 C-12.22429688 249.56460938 -12.44859375 250.12921875 -12.6796875 250.7109375 C-23.57445734 269.59950297 -55.17070352 280.13923727 -74.81054688 285.43359375 C-102.26371764 292.53566291 -134.58763346 290.81016685 -159.4296875 276.2890625 C-177.89131333 264.81454465 -190.05928553 246.92901611 -195.375 225.9375 C-206.73728576 177.02974694 -190.98163466 122.81157416 -165 81 C-158.43273894 70.65407623 -151.11530858 61.16751699 -143 52 C-142.22785156 51.10539062 -141.45570313 50.21078125 -140.66015625 49.2890625 C-116.88511961 22.1295303 -79.9280645 0.12020529 -43.41210938 -2.85498047 C-28.81146704 -3.73279237 -14.15990771 -4.05314312 0 0 Z M-73 82 C-73.85335937 82.77214844 -74.70671875 83.54429687 -75.5859375 84.33984375 C-98.7262259 106.30531751 -111.53809583 142.47684267 -113.203125 173.82421875 C-113.36315476 187.01333848 -111.76370621 197.9564393 -104 209 C-103.401875 209.9075 -102.80375 210.815 -102.1875 211.75 C-93.02205545 221.1773144 -80.90416906 224.04924877 -68.14477539 224.29296875 C-46.35751561 224.433884 -28.61962727 218.32483938 -12.0625 204.1015625 C-9.7665191 202.25285818 -9.7665191 202.25285818 -10 200 C-9.01 199.67 -8.02 199.34 -7 199 C15.07345708 174.77016612 26.56944928 137.34467029 26.27734375 105.05078125 C25.674435 92.73164569 21.74404731 82.48046363 13.5625 73.25 C0.88077649 62.11482814 -13.02382725 60.86235766 -29.37011719 61.77685547 C-46.16483062 63.20188036 -60.68373423 70.70698894 -73 82 Z " fill="#062553" transform="translate(2514,231)"/>
<path d="M0 0 C0.98563881 3.09632004 0.9793954 5.04248179 0.14042664 8.16822815 C-0.18444072 9.4067025 -0.18444072 9.4067025 -0.51587105 10.67019653 C-0.76240362 11.56995209 -1.0089362 12.46970764 -1.26293945 13.39672852 C-1.64423413 14.83312431 -1.64423413 14.83312431 -2.03323174 16.29853821 C-2.88410071 19.49451566 -3.74867391 22.68662048 -4.61328125 25.87890625 C-5.21610803 28.13209671 -5.81808663 30.38551426 -6.41926575 32.6391449 C-8.03648407 38.69203936 -9.66550382 44.7417004 -11.29673004 50.79083252 C-12.99560181 57.09893344 -14.68351831 63.40996412 -16.37255859 69.72070312 C-19.66649279 82.0209493 -22.97210177 94.31802921 -26.28167725 106.61407471 C-28.33976965 114.2609603 -30.39219516 121.90936111 -32.44338799 129.55809975 C-34.86301612 138.58016934 -37.28624565 147.60126401 -39.71459103 156.62099171 C-45.88164895 179.52850416 -52.00585417 202.44743568 -58.12941742 225.36660767 C-67.93487764 262.0662122 -77.75503637 298.7618288 -87.59643555 335.45181274 C-93.52924906 357.57026622 -99.45475007 379.69063138 -105.35968018 401.81654739 C-106.27851535 405.25928492 -107.19757202 408.70196323 -108.11669922 412.1446228 C-108.72363665 414.41802876 -109.33057026 416.69143574 -109.9375 418.96484375 C-110.23584747 420.08236841 -110.53419495 421.19989307 -110.84158325 422.35128212 C-112.57047196 428.82796221 -114.29771319 435.30507866 -116.02362823 441.78255177 C-117.10388388 445.83531054 -118.18568067 449.88765697 -119.26780701 453.93991661 C-119.75704503 455.77324768 -120.24567696 457.60674066 -120.73353577 459.44043922 C-125.67274454 478.00323359 -130.85831222 496.48992398 -136 515 C-167.68 515 -199.36 515 -232 515 C-230.74353817 508.71769083 -229.45416269 502.59720736 -227.78295898 496.4362793 C-227.56867626 495.63604308 -227.35439354 494.83580687 -227.1336174 494.01132107 C-226.42413043 491.36479881 -225.7101268 488.71951776 -224.99609375 486.07421875 C-224.48461274 484.16998581 -223.9734151 482.26567673 -223.46247864 480.36129761 C-222.08013172 475.2121185 -220.69386509 470.06400201 -219.30690002 464.91606522 C-217.83930636 459.46607473 -216.37541585 454.0150897 -214.91113281 448.56420898 C-212.17321944 438.37425024 -209.43221068 428.18512706 -206.6899662 417.99633312 C-203.6200253 406.58943006 -200.55391839 395.18149783 -197.48828125 383.7734375 C-196.44217105 379.88076929 -195.39602491 375.98811075 -194.34985352 372.09545898 C-194.09354503 371.14176768 -193.83723654 370.18807638 -193.57316113 369.20548534 C-191.76155046 362.46503031 -189.9491901 355.72477713 -188.13647461 348.98461914 C-183.13244957 330.37791345 -178.13137972 311.77042632 -173.140625 293.16015625 C-172.90358227 292.27624395 -172.66653954 291.39233166 -172.42231369 290.48163414 C-171.2432079 286.08474835 -170.0641807 281.68784149 -168.88519287 277.29092407 C-159.29291299 241.51750074 -149.6645042 205.75398065 -140 170 C-143.75341978 171.83589532 -147.2765942 173.96761094 -150.8125 176.1875 C-151.49900635 176.61748291 -152.1855127 177.04746582 -152.89282227 177.49047852 C-162.09391486 183.2821881 -171.17319597 189.26289003 -180.27001953 195.21630859 C-184.13098583 197.7389539 -188.00144363 200.24674324 -191.875 202.75 C-192.89194946 203.40730103 -192.89194946 203.40730103 -193.92944336 204.07788086 C-195.27677856 204.94852398 -196.62418988 205.81904931 -197.97167969 206.68945312 C-201.48232796 208.95776799 -204.99104113 211.22907298 -208.5 213.5 C-209.91665794 214.41668015 -211.33332459 215.33334684 -212.75 216.25 C-213.45125 216.70375 -214.1525 217.1575 -214.875 217.625 C-238.25 232.75 -238.25 232.75 -240.3762207 234.12573242 C-241.78888827 235.03984965 -243.20148625 235.95407443 -244.61401367 236.8684082 C-248.21629532 239.19998074 -251.81987164 241.52951034 -255.42578125 243.85546875 C-263.66239342 249.17132231 -271.86484356 254.52953835 -280 260 C-281.33338894 255.99983319 -280.21055368 253.10011827 -279.14160156 249.16723633 C-278.93198792 248.37010223 -278.72237427 247.57296814 -278.50640869 246.75167847 C-277.80932642 244.10955325 -277.100194 241.47082805 -276.390625 238.83203125 C-275.90252306 236.99476653 -275.4150439 235.15733624 -274.92816162 233.31974792 C-273.90422697 229.46233301 -272.87467518 225.60647671 -271.84082031 221.75170898 C-270.51986134 216.82577635 -269.20976658 211.89703977 -267.90353775 206.96718311 C-266.89623184 203.16833019 -265.88461778 199.37063549 -264.8715744 195.57330894 C-264.38742443 193.75760253 -263.90424189 191.94163785 -263.42206573 190.12540627 C-262.74415349 187.57572706 -262.06082571 185.0275598 -261.37597656 182.47973633 C-261.1794751 181.73710037 -260.98297363 180.99446442 -260.78051758 180.22932434 C-257.29720378 167.34985711 -257.29720378 167.34985711 -254.32788086 164.26000977 C-253.71307861 163.90737061 -253.09827637 163.55473145 -252.46484375 163.19140625 C-251.75142822 162.76351807 -251.0380127 162.33562988 -250.30297852 161.89477539 C-249.52237061 161.45512451 -248.7417627 161.01547363 -247.9375 160.5625 C-246.21437905 159.53420485 -244.49312704 158.50277351 -242.7734375 157.46875 C-241.84499023 156.91703125 -240.91654297 156.3653125 -239.95996094 155.796875 C-234.57060641 152.52521141 -229.32599039 149.03165383 -224.0625 145.5625 C-221.8367425 144.10163393 -219.60969843 142.64274016 -217.3828125 141.18359375 C-215.76681152 140.12374268 -215.76681152 140.12374268 -214.11816406 139.04248047 C-209.5645784 136.05976064 -205.00237814 133.09040007 -200.4375 130.125 C-199.62804932 129.59914307 -198.81859863 129.07328613 -197.98461914 128.53149414 C-192.13786155 124.73518472 -186.28556793 120.94746148 -180.43139648 117.16259766 C-174.94872079 113.61690749 -169.47348675 110.0598555 -164 106.5 C-157.15059012 102.0452693 -150.29514037 97.60007185 -143.43359375 93.1640625 C-137.95023145 89.61781324 -132.47422466 86.06033543 -127 82.5 C-120.15059012 78.0452693 -113.29514037 73.60007185 -106.43359375 69.1640625 C-100.95023145 65.61781324 -95.47422466 62.06033543 -90 58.5 C-83.15059012 54.0452693 -76.29514037 49.60007185 -69.43359375 45.1640625 C-63.9502314 41.6178132 -58.47423636 38.06031751 -53 34.5 C-46.77510749 30.4517058 -40.54728876 26.40803836 -34.3125 22.375 C-33.62865234 21.93260986 -32.94480469 21.49021973 -32.24023438 21.03442383 C-28.65464539 18.71540938 -25.06795901 16.39810328 -21.48046875 14.08203125 C-14.28768774 9.43633727 -7.09679823 4.79185521 0 0 Z " fill="#3294FE" transform="translate(450,0)"/>
<path d="M0 0 C0.87140625 0.38929688 1.7428125 0.77859375 2.640625 1.1796875 C8.7563307 4.04994202 13.83172178 7.67477426 19 12 C19.96679688 12.76828125 20.93359375 13.5365625 21.9296875 14.328125 C40.26881113 29.68396118 47.63842697 53.89391322 49.6875 76.86328125 C53.51409974 125.27194218 32.79634516 177.02903858 1.9296875 213.57421875 C0.95317774 214.71619093 -0.02338029 215.85812185 -1 217 C-1.76054688 217.91394531 -2.52109375 218.82789063 -3.3046875 219.76953125 C-6.66879178 223.75480831 -6.66879178 223.75480831 -8 225 C-8.66 225 -9.32 225 -10 225 C-10.26167969 225.59554687 -10.52335937 226.19109375 -10.79296875 226.8046875 C-22.58011321 248.2427949 -61.31244156 264.14862343 -83.62695312 270.78076172 C-124.46605549 282.4722601 -173.94997553 285.14369074 -212.3984375 264.15234375 C-217.96815697 260.92894692 -223.01475371 257.06148702 -228 253 C-228.845625 252.35289062 -229.69125 251.70578125 -230.5625 251.0390625 C-246.32114889 237.8563466 -255.27305676 215.92640203 -257.75390625 195.875 C-259.72005507 164.9159582 -255.05200911 134.66733087 -243 106 C-242.71431152 105.29746094 -242.42862305 104.59492188 -242.13427734 103.87109375 C-234.6468194 85.52257446 -224.22393286 69.52826733 -212 54 C-211.54753906 53.41976074 -211.09507813 52.83952148 -210.62890625 52.24169922 C-205.32593378 45.46152634 -205.32593378 45.46152634 -203 43 C-202.34 43 -201.68 43 -201 43 C-201 42.34 -201 41.68 -201 41 C-200.34 41 -199.68 41 -199 41 C-199 40.34 -199 39.68 -199 39 C-196.57992064 36.41755109 -193.72198801 34.25457592 -191 32 C-190.4848584 31.56333008 -189.9697168 31.12666016 -189.43896484 30.67675781 C-175.37791802 18.78115313 -160.0542037 9.02256535 -143 2 C-142.2879541 1.70641602 -141.5759082 1.41283203 -140.84228516 1.11035156 C-96.77646891 -16.72921198 -43.83164447 -20.14228749 0 0 Z M-137 73 C-156.02636641 92.06488133 -165.13095115 118.31078516 -171 144 C-171.37125 145.60294922 -171.37125 145.60294922 -171.75 147.23828125 C-174.70606237 162.73708047 -175.78306869 182.29089872 -167.64453125 196.33984375 C-161.41366498 205.31028661 -152.56618087 211.5628725 -141.79296875 213.62109375 C-120.44090355 216.51780749 -100.4188396 213.99004172 -82 202 C-53.834815 180.53137214 -40.91082569 144.44337898 -35.96435547 110.50488281 C-34.07623976 95.97937888 -34.04080028 80.05548356 -42.8125 67.625 C-43.84333013 66.38953858 -44.90543916 65.17936943 -46 64 C-46.50144531 63.45730469 -47.00289062 62.91460937 -47.51953125 62.35546875 C-71.85071792 38.97148156 -115.65985673 53.70464398 -137 73 Z " fill="#062553" transform="translate(1668,241)"/>
<path d="M0 0 C29.04 0 58.08 0 88 0 C90.99945548 21.59607946 93.97649742 43.17515926 96.67698097 64.80773163 C97.22539823 69.1963455 97.77709117 73.58454454 98.32902527 77.97271729 C99.19841762 84.88802331 100.0654786 91.80361933 100.93159932 98.71933579 C101.92133593 106.62110504 102.91382804 114.5225275 103.9064976 122.42392874 C105.94062891 138.61558133 107.97147539 154.80764401 110 171 C111.60196921 168.92469576 113.20298511 166.84866774 114.8034668 164.7722168 C115.25407219 164.1886718 115.70467758 163.6051268 116.16893768 163.00389862 C119.4976493 158.68308177 122.70503802 154.29540534 125.8125 149.8125 C126.82595353 148.36397468 127.84030877 146.91607991 128.85546875 145.46875 C129.36899902 144.7365625 129.8825293 144.004375 130.41162109 143.25 C133.11869692 139.41532265 135.87153558 135.61393986 138.625 131.8125 C142.43315635 126.55324391 146.23236939 121.28837494 150 116 C154.36749962 109.8710078 158.77350985 103.77027408 163.18359375 97.671875 C166.47018533 93.12477889 169.74401439 88.56905522 173 84 C177.36758166 77.87106573 181.77350934 71.77027479 186.18359375 65.671875 C189.87356968 60.56668477 193.54489012 55.44876145 197.19799805 50.31713867 C199.46695085 47.13370299 201.75072621 43.96183479 204.05078125 40.80078125 C210.3467168 32.14160942 216.52034412 23.41814774 222.51098633 14.54418945 C223.01138428 13.80515381 223.51178223 13.06611816 224.02734375 12.3046875 C224.45781006 11.66515137 224.88827637 11.02561523 225.33178711 10.36669922 C225.88229736 9.58568848 226.43280762 8.80467773 227 8 C227.28458069 7.33280945 227.56916138 6.6656189 227.86236572 5.97821045 C229.30513983 3.22497703 230.44136499 1.80490739 233 0 C239.24086868 -1.16313348 245.41669132 -0.93055015 251.7421875 -0.78125 C253.59446771 -0.76631988 255.44677962 -0.7549365 257.29910278 -0.74694824 C262.16284162 -0.71647426 267.02465406 -0.63795383 271.88763428 -0.54931641 C276.85451192 -0.46732157 281.82170242 -0.43090776 286.7890625 -0.390625 C296.5268858 -0.30495362 306.26328241 -0.16850523 316 0 C314.89366446 1.74724855 313.78618158 3.49377065 312.67822266 5.23999023 C311.75331528 6.69900002 311.75331528 6.69900002 310.8097229 8.18748474 C308.43002106 11.88581212 305.92990125 15.48395067 303.375 19.0625 C302.86702881 19.77873535 302.35905762 20.4949707 301.83569336 21.23291016 C298.64453305 25.72287223 295.41858929 30.18691889 292.18212891 34.64428711 C291.3804126 35.74848999 291.3804126 35.74848999 290.5625 36.875 C290.02286621 37.6182251 289.48323242 38.3614502 288.92724609 39.12719727 C284.46039036 45.30548434 280.1562228 51.58611257 275.87524414 57.89404297 C271.65664748 64.09044347 267.29275113 70.16905299 262.87719727 76.22607422 C258.95735379 81.62271239 255.17611866 87.10162205 251.4375 92.625 C246.86338409 99.37910251 242.1033356 105.94661316 237.16552734 112.43847656 C233.64205952 117.08884558 230.37830227 121.86017777 227.1875 126.74609375 C224.40778837 130.8809148 221.49129867 134.90747303 218.5625 138.9375 C214.10861972 145.06855249 209.7236429 151.23223908 205.4296875 157.4765625 C200.00874522 165.35610776 194.49437675 173.17159227 189 181 C188.47470703 181.74862305 187.94941406 182.49724609 187.40820312 183.26855469 C181.80885328 191.2424036 176.15952515 199.17618118 170.4375 207.0625 C165.89564988 213.32501257 161.45410143 219.6453727 157.09130859 226.03369141 C152.30996213 233.03006627 147.41493065 239.94448394 142.51611328 246.85888672 C140.00656081 250.40297289 137.50356599 253.95168372 135 257.5 C132.02479257 261.71580278 129.04900204 265.93118783 126.0703125 270.14453125 C120.69494856 277.75009937 115.33744986 285.36776805 110 293 C104.17876317 301.32401819 98.331458 309.62918349 92.46777344 317.92333984 C89.97679014 321.44767516 87.48855097 324.97394701 85 328.5 C84.00001278 329.91667568 83.00001278 331.33334236 82 332.75 C81.505 333.45125 81.01 334.1525 80.5 334.875 C79 337 77.5 339.125 76 341.25 C75.50508057 341.95116943 75.01016113 342.65233887 74.50024414 343.37475586 C73.49955812 344.79232654 72.49874417 346.20980692 71.49780273 347.62719727 C69.00724549 351.15430572 66.51888408 354.68292217 64.03515625 358.21484375 C58.28917039 366.38009268 52.49481429 374.5072765 46.62719727 382.58569336 C45.87394165 383.62415405 45.87394165 383.62415405 45.10546875 384.68359375 C44.36552925 385.65566269 44.36552925 385.65566269 43.61064148 386.64736938 C41.92662777 388.95199764 41.92662777 388.95199764 40.86627197 391.57469177 C39.24491975 394.82358818 37.8521746 396.71921285 35 399 C28.64088025 400.8818319 21.61366525 400.15907937 15.06640625 399.9765625 C13.10346587 399.95789729 11.14047871 399.94366926 9.17747498 399.9336853 C4.02562479 399.89561096 -1.12337892 399.79748261 -6.27410889 399.68664551 C-11.53586316 399.58410886 -16.79808023 399.53862593 -22.06054688 399.48828125 C-32.37494455 399.38122528 -42.68723505 399.21069177 -53 399 C-51.38738173 394.7100566 -49.36725624 391.66018069 -46.5 388.0625 C-42.95264942 383.55160796 -39.50352116 378.99628697 -36.1875 374.3125 C-35.57805542 373.45265503 -35.57805542 373.45265503 -34.95629883 372.57543945 C-34.09705256 371.36303751 -33.23792523 370.15055127 -32.37890625 368.93798828 C-29.83422388 365.36155615 -27.25967801 361.80668153 -24.6875 358.25 C-23.86608521 357.11365112 -23.86608521 357.11365112 -23.02807617 355.9543457 C-21.90994466 354.40763247 -20.79169859 352.86100206 -19.67333984 351.31445312 C-16.94736861 347.54406981 -14.22378466 343.77196306 -11.5 340 C-10.41667856 338.49999141 -9.33334521 336.99999142 -8.25 335.5 C-7.445625 334.38625 -7.445625 334.38625 -6.625 333.25 C-0.66666667 325 5.29166667 316.75 11.25 308.5 C11.78657227 307.7570166 12.32314453 307.0140332 12.87597656 306.24853516 C13.95591198 304.75331489 15.03598939 303.25819716 16.11621094 301.76318359 C18.8777244 297.94089565 21.63650813 294.11668417 24.390625 290.2890625 C24.94862793 289.5148999 25.50663086 288.7407373 26.08154297 287.94311523 C27.1824797 286.41349945 28.28052734 284.88179956 29.37548828 283.34790039 C31.78182275 279.99185308 34.2091942 276.69426177 36.8515625 273.51953125 C37.68429688 272.50246094 38.51703125 271.48539062 39.375 270.4375 C40.46941406 269.16712891 40.46941406 269.16712891 41.5859375 267.87109375 C44.83892541 261.26627022 41.16091806 250.55818437 39.96899414 243.47338867 C39.7633358 242.23898922 39.55767746 241.00458977 39.34578705 239.73278427 C38.78055921 236.34053102 38.21232369 232.9487877 37.64355969 229.55712581 C37.03427853 225.92058679 36.42781609 222.28357766 35.82102966 218.6466217 C34.77967499 212.40718416 33.73660115 206.16803605 32.69238281 199.92907715 C31.19594627 190.98794426 29.7027922 182.04626554 28.21050668 173.10443902 C23.61777384 145.58534213 19.01701575 118.06758836 14.40893841 90.55105686 C12.69482899 80.31522417 10.9826249 70.07907363 9.27177143 59.84269619 C8.09991551 52.83254217 6.92497749 45.82291379 5.74766636 38.81367397 C5.02768679 34.52336337 4.31033628 30.23261635 3.59373665 25.94174004 C3.26463193 23.97455288 2.93440434 22.00755319 2.6029644 20.04075813 C2.15616923 17.38866106 1.7133215 14.73593467 1.27148438 12.08300781 C1.14082108 11.31340823 1.01015779 10.54380865 0.87553501 9.75088787 C0.32623585 6.42921902 0 3.38003872 0 0 Z " fill="#062553" transform="translate(2684,235)"/>
<path d="M0 0 C79.2 0 158.4 0 240 0 C235.35662252 19.7343543 235.35662252 19.7343543 233.52734375 26.578125 C233.31815811 27.36346619 233.10897247 28.14880737 232.89344788 28.95794678 C232.4606136 30.57766037 232.02634056 32.19699022 231.59057617 33.81591797 C230.92727368 36.28811455 230.27520843 38.76312549 229.62304688 41.23828125 C229.19599469 42.83091225 228.76828546 44.42336724 228.33984375 46.015625 C228.14913803 46.74581848 227.95843231 47.47601196 227.76194763 48.22833252 C225.9854335 54.73837622 223.54482503 58.82758845 218.5 63.25 C217.61054687 64.03117187 216.72109375 64.81234375 215.8046875 65.6171875 C212.20189613 68.67805482 208.52771275 71.64520124 204.8515625 74.6171875 C201.28233968 77.59968876 197.88737034 80.74386159 194.4831543 83.91137695 C190.37239043 87.71385014 186.07733477 91.24263299 181.71484375 94.75390625 C178.89326505 97.0883059 176.19409288 99.51990598 173.5 102 C169.0301488 106.11378909 164.40955107 109.97087297 159.68359375 113.78515625 C156.19306571 116.66598507 152.86725932 119.70934403 149.5234375 122.7578125 C146.94917642 125.04515904 144.30710511 127.21548271 141.625 129.375 C137.07219493 133.05571847 132.76582589 136.92648648 128.4831543 140.91137695 C124.37239043 144.71385014 120.07733477 148.24263299 115.71484375 151.75390625 C112.89326505 154.0883059 110.19409288 156.51990598 107.5 159 C103.0301488 163.11378909 98.40955107 166.97087297 93.68359375 170.78515625 C90.19306571 173.66598507 86.86725932 176.70934403 83.5234375 179.7578125 C80.94917642 182.04515904 78.30710511 184.21548271 75.625 186.375 C71.61174824 189.61951621 67.7757308 192.98735238 64 196.5 C59.33730636 200.83612365 54.53423603 204.9372964 49.5703125 208.9296875 C46.6861209 211.25282055 43.84506562 213.62911198 41 216 C89.18 216.33 137.36 216.66 187 217 C184.74956874 229.37737195 184.74956874 229.37737195 183.50366211 234.00634766 C183.22675034 235.04336823 182.94983856 236.08038879 182.66453552 237.14883423 C182.37176224 238.22635956 182.07898895 239.30388489 181.77734375 240.4140625 C181.31902916 242.11844986 181.31902916 242.11844986 180.85145569 243.85726929 C180.21067439 246.23599771 179.56769665 248.61413545 178.92260742 250.99169922 C177.93131354 254.64781708 176.94859053 258.30616464 175.96679688 261.96484375 C175.34164945 264.28138597 174.71601614 266.59779713 174.08984375 268.9140625 C173.79504623 270.01183014 173.50024872 271.10959778 173.19651794 272.2406311 C172.92275833 273.24613007 172.64899872 274.25162903 172.36694336 275.28759766 C172.12648788 276.17597321 171.88603241 277.06434875 171.63829041 277.97964478 C171 280 171 280 170 281 C166.8271065 281.09808162 163.67596099 281.12990152 160.50267029 281.12025452 C159.49317843 281.12110894 158.48368657 281.12196337 157.44360405 281.12284368 C154.03326727 281.12450153 150.6229788 281.11897215 147.21264648 281.11352539 C144.7790324 281.11324356 142.34541823 281.11340117 139.9118042 281.1139679 C134.65815538 281.11419622 129.40452184 281.11134484 124.150877 281.10573006 C116.55490709 281.0976172 108.95894318 281.09500006 101.36296941 281.09374207 C89.04023467 281.09155121 76.71750654 281.08489021 64.39477539 281.07543945 C52.42146844 281.06626621 40.44816327 281.05918495 28.47485352 281.05493164 C27.36856574 281.05453756 27.36856574 281.05453756 26.23992871 281.05413551 C22.54013376 281.05283051 18.84033879 281.05156679 15.14054382 281.05032361 C-15.57297559 281.03994994 -46.28648679 281.02225659 -77 281 C-76.68043829 279.39539876 -76.36050335 277.79087185 -76.04041004 276.18637657 C-75.86228616 275.29284772 -75.68416227 274.39931887 -75.50064069 273.47871339 C-73.90712799 265.58910047 -71.95866522 257.77744288 -70.0090332 249.96972656 C-69.46327699 247.74777703 -68.93512308 245.52142676 -68.42504883 243.29101562 C-65.01259637 228.42505997 -61.64491692 218.92863103 -49 210 C-47.67155646 208.85152051 -46.35402131 207.68984876 -45.0625 206.5 C-40.76959206 202.78130268 -36.4482665 199.09512959 -32.13305664 195.40234375 C-29.07458182 192.78395791 -26.02360576 190.15868782 -23 187.5 C-18.74699783 183.7602912 -14.43838981 180.08598997 -10.13500977 176.40454102 C-7.05335233 173.76637086 -3.98129437 171.1193995 -0.9375 168.4375 C2.35886733 165.53921093 5.70683137 162.70413281 9.0625 159.875 C14.52916411 155.26484918 19.94396982 150.59789899 25.34204102 145.90771484 C29.54727555 142.25516211 33.76721817 138.62058288 38 135 C44.72110505 129.24879512 51.40692421 123.45755714 58.08691406 117.65869141 C60.03243664 115.97187665 61.98068401 114.28825982 63.9296875 112.60546875 C69.41410102 107.86721528 74.88899211 103.12826311 80.25 98.25 C84.46953333 94.42168168 88.85269142 90.83265413 93.28125 87.25 C96.76844136 84.36404853 100.09758894 81.32299889 103.44140625 78.2734375 C107.07965124 75.0406763 110.85779763 71.99186896 114.65234375 68.9453125 C117.18515961 66.90815303 117.18515961 66.90815303 120 64 C75.12 63.67 30.24 63.34 -16 63 C-14.87495508 53.99964061 -14.87495508 53.99964061 -13.6171875 49.3659668 C-13.3402002 48.33517502 -13.06321289 47.30438324 -12.77783203 46.24235535 C-12.47989746 45.15562027 -12.18196289 44.06888519 -11.875 42.94921875 C-11.56804199 41.81345901 -11.26108398 40.67769928 -10.94482422 39.50752258 C-9.96826349 35.89945775 -8.98413448 32.29350547 -8 28.6875 C-7.33806573 26.24426952 -6.67660241 23.80091139 -6.015625 21.35742188 C-4.80743142 16.8998855 -3.59864322 12.4425205 -2.3828125 7.98706055 C-2.01760498 6.64758614 -2.01760498 6.64758614 -1.64501953 5.28105164 C-1.14332194 3.50684473 -0.58305322 1.74915967 0 0 Z " fill="#072653" transform="translate(1178,235)"/>
<path d="M0 0 C1.41399268 3.82262565 0.57487091 6.53781106 -0.46850586 10.40258789 C-0.63806762 11.04116195 -0.80762938 11.679736 -0.98232937 12.33766079 C-1.5506655 14.46856853 -2.13271806 16.59547786 -2.71484375 18.72265625 C-3.12172553 20.23679839 -3.52776389 21.75116739 -3.93301392 23.26574707 C-5.0286456 27.3508804 -6.13617998 31.43270115 -7.2458992 35.51402664 C-8.40328492 39.77886652 -9.54950835 44.04670441 -10.69702148 48.31420898 C-13.23707587 57.75174278 -15.79295402 67.18494631 -18.35325623 76.61700439 C-19.16329022 79.60166003 -19.97253265 82.58652988 -20.78168201 85.57142544 C-21.69015365 88.92268165 -22.5989783 92.2738421 -23.5078125 95.625 C-23.77005332 96.59205274 -23.77005332 96.59205274 -24.03759193 97.57864189 C-25.80553095 104.09757328 -27.57607708 110.61575489 -29.35717773 117.13110352 C-33.29836658 131.57110156 -37.11780727 146.04036778 -40.89983559 160.52267647 C-46.35214884 181.39736943 -51.90611947 202.24454429 -57.47277832 223.08898926 C-58.51851281 227.00568948 -59.5632926 230.9226441 -60.60807037 234.83959961 C-63.08394022 244.12176409 -65.56216663 253.40329427 -68.04410553 262.68383789 C-69.27315131 267.27969966 -70.50053209 271.8759984 -71.7256813 276.47290039 C-72.5393762 279.52405572 -73.35578809 282.57448373 -74.171875 285.625 C-74.4523468 286.67977539 -74.7328186 287.73455078 -75.02178955 288.82128906 C-75.2733783 289.7594043 -75.52496704 290.69751953 -75.78417969 291.6640625 C-75.99741882 292.46279785 -76.21065796 293.2615332 -76.43035889 294.08447266 C-77 296 -77 296 -78 298 C-142.35 298 -206.7 298 -273 298 C-270.75014853 285.62581693 -270.75014853 285.62581693 -269.45043945 280.85668945 C-269.15810928 279.77493942 -268.86577911 278.69318939 -268.56459045 277.57865906 C-268.25065842 276.43508438 -267.93672638 275.2915097 -267.61328125 274.11328125 C-267.10086089 272.22372103 -266.58844158 270.33416052 -266.07606411 268.44458866 C-265.53229118 266.44266728 -264.98628797 264.44136699 -264.4395752 262.44024658 C-263.29753526 258.25999546 -262.1613133 254.07817806 -261.02636719 249.89599609 C-260.83503267 249.19099598 -260.64369816 248.48599586 -260.44656563 247.75963211 C-260.05736638 246.32556795 -259.66818149 244.89149989 -259.27901077 243.45742798 C-258.68892639 241.28383411 -258.09822984 239.11040735 -257.50741577 236.93701172 C-254.88693017 227.29351866 -252.29108805 217.6436828 -249.71484375 207.98828125 C-249.37717484 206.72339371 -249.03950592 205.45850616 -248.69160461 204.1552887 C-247.39892224 199.31110613 -246.10683367 194.46676986 -244.81826782 189.62149048 C-243.14371718 183.32624621 -241.45249977 177.03603645 -239.7388916 170.75131226 C-239.03257907 168.12131036 -238.35845165 165.48491376 -237.69042969 162.8449707 C-237.28401127 161.31179727 -236.87684064 159.77882293 -236.46875 158.24609375 C-236.30848328 157.57373688 -236.14821655 156.90138 -235.98309326 156.20864868 C-234.31081074 150.12317323 -230.8498691 147.85988824 -225.65405273 144.63769531 C-225.02442627 144.30866211 -224.3947998 143.97962891 -223.74609375 143.640625 C-217.90973007 140.45554783 -212.39023387 136.80040809 -206.8125 133.1875 C-204.64283727 131.80065835 -202.47226582 130.41523731 -200.30078125 129.03125 C-194.68342976 125.4426945 -189.08573707 121.82503027 -183.5 118.1875 C-182.68337891 117.65576172 -181.86675781 117.12402344 -181.02539062 116.57617188 C-179.43529922 115.54049491 -177.84529019 114.50469147 -176.25537109 113.46875 C-165.76487332 106.63709438 -155.23593386 99.86682165 -144.6875 93.125 C-134.5234589 86.62834902 -124.39710159 80.07629685 -114.29052734 73.49072266 C-109.24253527 70.20538482 -104.18308004 66.93774294 -99.125 63.66796875 C-96.39403235 61.90250122 -93.66495966 60.13416311 -90.9375 58.36328125 C-83.04650769 53.24287062 -75.12895993 48.16682312 -67.1875 43.125 C-57.52743861 36.99080231 -47.92455008 30.77253403 -38.33886719 24.52294922 C-33.98370027 21.68709001 -29.61904538 18.86590934 -25.25439453 16.04467773 C-21.57873556 13.66875487 -17.9050081 11.28993238 -14.234375 8.90625 C-13.45280029 8.39916504 -12.67122559 7.89208008 -11.8659668 7.36962891 C-10.36168972 6.39356274 -8.85792302 5.41670941 -7.35473633 4.43896484 C-2.22478822 1.11239411 -2.22478822 1.11239411 0 0 Z " fill="#062553" transform="translate(274,217)"/>
<path d="M0 0 C-1.40634324 8.92378382 -3.65279121 17.56414402 -6.0625 26.2578125 C-6.45860387 27.69695926 -6.85451512 29.13615905 -7.25024414 30.57540894 C-8.07398545 33.56650229 -8.90147794 36.55652702 -9.73144531 39.54589844 C-10.79608145 43.38250733 -11.84883441 47.22226908 -12.89863586 51.06295967 C-13.70980277 54.02406207 -14.52825111 56.98311409 -15.34884644 59.94161606 C-15.74051006 61.35795498 -16.12962058 62.77500246 -16.5161438 64.19275284 C-17.05394867 66.16200464 -17.60286323 68.12821237 -18.15234375 70.09423828 C-18.46163818 71.21355743 -18.77093262 72.33287659 -19.08959961 73.4861145 C-20 76 -20 76 -22 77 C-24.40473669 76.12906323 -26.71799258 75.19911838 -29.0625 74.1875 C-51.32306147 64.99263462 -74.90803065 66.76137908 -97.125 75.1875 C-111.80420097 81.64792896 -123.58670303 92.42955902 -132 106 C-132.64839844 107.04285156 -133.29679687 108.08570313 -133.96484375 109.16015625 C-138.04948352 116.0734604 -140.88425104 123.12751969 -143.16015625 130.81640625 C-143.60126488 132.28753876 -143.60126488 132.28753876 -144.05128479 133.78839111 C-148.26789508 148.04990082 -152.00264589 162.44852564 -155.7972374 176.82653809 C-157.54669602 183.44842466 -159.30734454 190.06735351 -161.06595802 196.68681335 C-161.73411293 199.20213841 -162.40181392 201.71758369 -163.06950378 204.23303223 C-167.21930299 219.85966871 -171.42851332 235.46996645 -175.66460037 251.07341003 C-176.18636432 252.99581565 -176.70754742 254.91837887 -177.22872925 256.84094238 C-178.18651074 260.37343677 -179.14564034 263.9055613 -180.10546875 267.4375 C-180.3867865 268.47445007 -180.66810425 269.51140015 -180.95794678 270.57977295 C-181.21440979 271.52153381 -181.4708728 272.46329468 -181.73510742 273.43359375 C-182.06764778 274.65647095 -182.06764778 274.65647095 -182.40690613 275.90405273 C-182.89148914 277.61653113 -183.43720315 279.31160945 -184 281 C-211.72 281 -239.44 281 -268 281 C-267.32156461 276.25095224 -266.59464394 272.08336973 -265.36450195 267.51293945 C-264.8609745 265.63020073 -264.8609745 265.63020073 -264.34727478 263.70942688 C-263.97769045 262.3440233 -263.60802347 260.97864209 -263.23828125 259.61328125 C-262.85194653 258.17479276 -262.46597365 256.73620706 -262.08033752 255.29753113 C-261.04453367 251.43734171 -260.00371892 247.57851987 -258.96193695 243.71994019 C-257.86964492 239.67085163 -256.78199431 235.62051664 -255.69384766 231.5703125 C-253.73267173 224.27318543 -251.76764835 216.97710157 -249.80075836 209.68151283 C-247.93800649 202.77165711 -246.07977799 195.86058971 -244.22265625 188.94921875 C-241.12416664 177.4214994 -238.01745907 165.89600521 -234.90899658 154.37097168 C-233.95831164 150.84540066 -233.00814096 147.31969139 -232.05810547 143.79394531 C-227.24442227 125.92979642 -222.42452254 108.06733605 -217.59659576 90.20703125 C-217.19209118 88.71061725 -216.78760676 87.21419781 -216.38314056 85.71777344 C-213.59399591 75.39880017 -210.80203281 65.08059474 -208.00643921 54.7633667 C-207.17850772 51.70763459 -206.3514018 48.65168101 -205.52505493 45.59552002 C-204.55025656 41.99053774 -203.57360758 38.3860615 -202.595644 34.78193665 C-202.07231708 32.85165513 -201.55075419 30.92089561 -201.02928162 28.9901123 C-198.48234923 19.61500154 -195.7430231 10.32627853 -193 1 C-165.61 1 -138.22 1 -110 1 C-110.68184666 5.77292665 -111.42142246 9.96161239 -112.6640625 14.5546875 C-113.13972656 16.34132812 -113.13972656 16.34132812 -113.625 18.1640625 C-114.29808389 20.66183474 -114.97258961 23.15922422 -115.6484375 25.65625 C-115.96296875 26.83960938 -116.2775 28.02296875 -116.6015625 29.2421875 C-116.89369629 30.3235498 -117.18583008 31.40491211 -117.48681641 32.51904297 C-117.65616699 33.33775879 -117.82551758 34.15647461 -118 35 C-117.67 35.33 -117.34 35.66 -117 36 C-116.67 35.34 -116.34 34.68 -116 34 C-115.34 34 -114.68 34 -114 34 C-113.78601562 33.45601563 -113.57203125 32.91203125 -113.3515625 32.3515625 C-102.45553624 13.39373646 -74.6804224 2.7857812 -55 -3 C-37.37011964 -7.4929335 -16.40037948 -8.80441425 0 0 Z " fill="#062553" transform="translate(1990,234)"/>
</svg>
